Format;Avi

File Size:8.75gb

Video: ID : 0
Format : MPEG-4 Visual
Format profile : Simple@L3
Format settings, BVOP : No
Format settings, QPel : No
Format settings, GMC : No warppoints
Format settings, Matrix : Default (H.263)
Codec ID : XVID
Codec ID/Hint : XviD
Duration : 1h 0mn
Bit rate : 1 348 Kbps
Width : 720 pixels
Height : 392 pixels
Display aspect ratio : 16:9
Frame rate : 29.970 fps
Color space : YUV
Chroma subsampling : 4:2:0
Bit depth : 8 bits
Scan type : Progressive
Bits/(Pixel*Frame) : 0.159
Stream size : 588 MiB (87%)
Writing library : XviD 1.2.1 (UTC 2008-12-04)

Audio: ID : 1
Format : AC-3
Format/Info : Audio Coding 3
Format profile : Dolby Digital
Mode extension : CM (complete main)
Codec ID : 2000
Duration : 1h 0mn
Bit rate mode : Constant
Bit rate : 192 Kbps
Channel(s) : 2 channels
Channel positions : Front: L R
Sampling rate : 48.0 KHz
Bit depth : 16 bits
Stream size : 83.8 MiB (12%)
Alignment : Aligned on interleaves
Interleave, duration : 33 ms (1.00 video frame)
Interleave, preload duration : 512 ms


Duration:20 hours plus

Release Date:2010

Language:English

Plot: A massacre collection For Halloween


Cast: Various


Bikini Massacre


The Cheerleader Massacre

Richard Speck Chicago Massacre


Duck The Carbine High Massacre


Jolly Roger Massacre At Pirates Cove

Motor Home Massacre


Slumber Party Massacre 3
Slumber Party Massacre 2
Sorority House Massacre 2

Sorority House Massacre

Texas Vibrator Massacre


Snuff Massacre


 
http://www.imdb.com/title/tt0093996/ 
http://www.imdb.com/title/tt0328945/ 
http://www.imdb.com/title/tt0100639/ 
http://www.imdb.com/title/tt0346609/ 
http://www.imdb.com/title/tt0091990/ 
http://www.imdb.com/title/tt0995033/ 
http://www.imdb.com/title/tt0100663/ 
http://www.imdb.com/title/tt0452636/ 
http://www.imdb.com/title/tt0491063/ 
http://www.imdb.com/title/tt1297945/ 
http://www.imdb.com/title/tt0356561/ 
http://www.imdb.com/title/tt1225757/